# Blender v3.2.0 OBJ File: 'uploads_files_2708212_terrain.blend'
# www.blender.org
mtllib streat.mtl
o rua_Cubo
v 16.744492 0.849350 1.604423
v 16.744492 0.849350 -2.734882
v 16.744492 1.150651 -2.734882
v 16.744492 1.150650 1.604423
v -14.945755 0.849350 -2.734882
v -14.945755 1.150651 -2.734882
v -14.945755 0.849350 1.604423
v -14.945755 1.150650 1.604423
vt 2.338983 0.969096
vt -1.338983 0.030904
vt 2.338983 0.030904
vt 2.338983 0.969096
vt -1.338983 0.030904
vt 2.338983 0.030904
vt 2.338983 0.969096
vt -1.338983 0.030904
vt 2.338983 0.030904
vt 2.338983 0.969096
vt -1.338983 0.030904
vt 2.338983 0.030904
vt -1.338983 0.030904
vt 2.338983 0.969096
vt 2.338983 0.030904
vt -1.338983 0.969096
vt -1.338983 0.969096
vt -1.338983 0.969096
vt -1.338983 0.969096
vt -1.338983 0.969096
vn 1.0000 0.0000 0.0000
vn 0.0000 0.0000 -1.0000
vn -1.0000 0.0000 0.0000
vn 0.0000 -0.0000 1.0000
vn 0.0000 -1.0000 -0.0000
vn 0.0000 1.0000 0.0000
usemtl Materiais.001
s 1
f 2/1/1 4/2/1 1/3/1
f 5/4/2 3/5/2 2/6/2
f 7/7/3 6/8/3 5/9/3
f 1/10/4 8/11/4 7/12/4
f 1/10/5 5/13/5 2/6/5
f 8/14/6 3/5/6 6/15/6
f 2/1/1 3/16/1 4/2/1
f 5/4/2 6/17/2 3/5/2
f 7/7/3 8/18/3 6/8/3
f 1/10/4 4/19/4 8/11/4
f 1/10/5 7/20/5 5/13/5
f 8/14/6 4/19/6 3/5/6
